<mxfile host="app.diagrams.net" agent="Mozilla/5.0 (Windows NT 10.0; Win64; x64) AppleWebKit/537.36 (KHTML, like Gecko) Chrome/126.0.0.0 Safari/537.36 OPR/112.0.0.0 (Edition std-1)" version="24.7.10">
  <diagram name="PÃ¡gina-1" id="HK9aFHkHAIHMT8hvckKe">
    <mxGraphModel grid="1" page="1" gridSize="10" guides="1" tooltips="1" connect="1" arrows="1" fold="1" pageScale="1" pageWidth="827" pageHeight="1169" math="0" shadow="0">
      <root>
        <mxCell id="0" />
        <mxCell id="1" parent="0" />
        <mxCell id="faxqKpqFukvN3cL5n8rD-2" value="" style="rounded=0;whiteSpace=wrap;html=1;" vertex="1" parent="1">
          <mxGeometry x="150" y="160" width="570" height="410" as="geometry" />
        </mxCell>
        <mxCell id="faxqKpqFukvN3cL5n8rD-8" style="edgeStyle=orthogonalEdgeStyle;rounded=0;orthogonalLoop=1;jettySize=auto;html=1;exitX=0.5;exitY=0.5;exitDx=0;exitDy=0;exitPerimeter=0;entryX=0;entryY=0.5;entryDx=0;entryDy=0;" edge="1" parent="1" source="faxqKpqFukvN3cL5n8rD-1" target="faxqKpqFukvN3cL5n8rD-3">
          <mxGeometry relative="1" as="geometry" />
        </mxCell>
        <mxCell id="faxqKpqFukvN3cL5n8rD-1" value="Usuario Alumno" style="shape=umlActor;verticalLabelPosition=bottom;verticalAlign=top;html=1;outlineConnect=0;" vertex="1" parent="1">
          <mxGeometry x="90" y="310" width="30" height="60" as="geometry" />
        </mxCell>
        <mxCell id="faxqKpqFukvN3cL5n8rD-9" style="rounded=0;orthogonalLoop=1;jettySize=auto;html=1;exitX=1;exitY=0.5;exitDx=0;exitDy=0;entryX=0;entryY=0.5;entryDx=0;entryDy=0;" edge="1" parent="1" source="faxqKpqFukvN3cL5n8rD-3" target="faxqKpqFukvN3cL5n8rD-4">
          <mxGeometry relative="1" as="geometry" />
        </mxCell>
        <mxCell id="faxqKpqFukvN3cL5n8rD-13" value="&amp;lt;&amp;lt;include&amp;gt;&amp;gt;" style="edgeLabel;html=1;align=center;verticalAlign=middle;resizable=0;points=[];" connectable="0" vertex="1" parent="faxqKpqFukvN3cL5n8rD-9">
          <mxGeometry x="0.0937" y="-1" relative="1" as="geometry">
            <mxPoint as="offset" />
          </mxGeometry>
        </mxCell>
        <mxCell id="faxqKpqFukvN3cL5n8rD-10" style="rounded=0;orthogonalLoop=1;jettySize=auto;html=1;exitX=1;exitY=0.5;exitDx=0;exitDy=0;entryX=0;entryY=0.5;entryDx=0;entryDy=0;" edge="1" parent="1" source="faxqKpqFukvN3cL5n8rD-3" target="faxqKpqFukvN3cL5n8rD-5">
          <mxGeometry relative="1" as="geometry" />
        </mxCell>
        <mxCell id="faxqKpqFukvN3cL5n8rD-14" value="&amp;lt;&amp;lt;include&amp;gt;&amp;gt;" style="edgeLabel;html=1;align=center;verticalAlign=middle;resizable=0;points=[];" connectable="0" vertex="1" parent="faxqKpqFukvN3cL5n8rD-10">
          <mxGeometry x="0.0208" y="1" relative="1" as="geometry">
            <mxPoint as="offset" />
          </mxGeometry>
        </mxCell>
        <mxCell id="faxqKpqFukvN3cL5n8rD-11" style="edgeStyle=none;rounded=0;orthogonalLoop=1;jettySize=auto;html=1;exitX=1;exitY=0.5;exitDx=0;exitDy=0;entryX=0;entryY=0.5;entryDx=0;entryDy=0;" edge="1" parent="1" source="faxqKpqFukvN3cL5n8rD-3" target="faxqKpqFukvN3cL5n8rD-6">
          <mxGeometry relative="1" as="geometry" />
        </mxCell>
        <mxCell id="faxqKpqFukvN3cL5n8rD-15" value="&amp;lt;&amp;lt;include&amp;gt;&amp;gt;" style="edgeLabel;html=1;align=center;verticalAlign=middle;resizable=0;points=[];" connectable="0" vertex="1" parent="faxqKpqFukvN3cL5n8rD-11">
          <mxGeometry x="0.0837" y="-1" relative="1" as="geometry">
            <mxPoint as="offset" />
          </mxGeometry>
        </mxCell>
        <mxCell id="faxqKpqFukvN3cL5n8rD-12" style="edgeStyle=none;rounded=0;orthogonalLoop=1;jettySize=auto;html=1;exitX=1;exitY=0.5;exitDx=0;exitDy=0;entryX=0;entryY=0.5;entryDx=0;entryDy=0;" edge="1" parent="1" source="faxqKpqFukvN3cL5n8rD-3" target="faxqKpqFukvN3cL5n8rD-7">
          <mxGeometry relative="1" as="geometry" />
        </mxCell>
        <mxCell id="faxqKpqFukvN3cL5n8rD-16" value="&amp;lt;&amp;lt;include&amp;gt;&amp;gt;" style="edgeLabel;html=1;align=center;verticalAlign=middle;resizable=0;points=[];" connectable="0" vertex="1" parent="faxqKpqFukvN3cL5n8rD-12">
          <mxGeometry x="-0.0317" y="2" relative="1" as="geometry">
            <mxPoint as="offset" />
          </mxGeometry>
        </mxCell>
        <mxCell id="faxqKpqFukvN3cL5n8rD-3" value="Configurar notificaciones" style="ellipse;whiteSpace=wrap;html=1;" vertex="1" parent="1">
          <mxGeometry x="190" y="300" width="120" height="80" as="geometry" />
        </mxCell>
        <mxCell id="faxqKpqFukvN3cL5n8rD-4" value="Recibir alertas sobre eventos" style="ellipse;whiteSpace=wrap;html=1;" vertex="1" parent="1">
          <mxGeometry x="510" y="190" width="120" height="80" as="geometry" />
        </mxCell>
        <mxCell id="faxqKpqFukvN3cL5n8rD-5" value="Recibir mensajes" style="ellipse;whiteSpace=wrap;html=1;" vertex="1" parent="1">
          <mxGeometry x="510" y="280" width="120" height="80" as="geometry" />
        </mxCell>
        <mxCell id="faxqKpqFukvN3cL5n8rD-6" value="Recibir desafios" style="ellipse;whiteSpace=wrap;html=1;" vertex="1" parent="1">
          <mxGeometry x="510" y="370" width="120" height="80" as="geometry" />
        </mxCell>
        <mxCell id="faxqKpqFukvN3cL5n8rD-7" value="Ajustar frecuencia de notificaciones" style="ellipse;whiteSpace=wrap;html=1;" vertex="1" parent="1">
          <mxGeometry x="510" y="460" width="120" height="80" as="geometry" />
        </mxCell>
      </root>
    </mxGraphModel>
  </diagram>
</mxfile>
